# xmcd
# Track frame offsets:
# 150
# 21073
# 39457
# 53957
# 71534
# 86417
# 98489
# 114396
# 131972
# 149067
#
# Disc length: 2181 seconds
# Revision: 1
# Processed by: cddbd v1.5.2PL0 Copyright (c) Steve Scherf et al.
# Submitted via: VisiTrax 2.10.3.257 - For more info visit www.synapsa.com
#
DISCID=8808830a
DTITLE=Tressie Seegers - Americana Songbird
DYEAR=2008
DGENRE=Country
TTITLE0=Jesus on a Greyhound
TTITLE1=Mexican Tulips
TTITLE2=Come and Go
TTITLE3=Fog
TTITLE4=Path to Your Door
TTITLE5=I'm Gonna Be Happy Someday
TTITLE6=Houston Sky
TTITLE7=That Kind of Love
TTITLE8=You Ain't Lonely Yet
TTITLE9=He Reached Down and Held My Heart
EXTD=Updated by Larry@YourTexasMusic.com
EXTT0=
EXTT1=
EXTT2=
EXTT3=
EXTT4=
EXTT5=
EXTT6=
EXTT7=
EXTT8=
EXTT9=
PLAYORDER=
